<?xml version="1.0" encoding="UTF-8"?>
<svg xmlns="http://www.w3.org/2000/svg"
     width="538"
     height="538"
     viewBox="0 0 538 538"
     version="1.1"
     class="theme-icon">
    
    <style>
        .theme-icon {
        color: #000000;
        }

        @media (prefers-color-scheme: dark) {
        .theme-icon {
            color: #ffffff;
        }
        }

        .theme-icon path {
        fill: currentColor;
        }
    </style>
  <path d="M0 269.002v269.002l269.25-.252 269.25-.252.252-268.75L539.004 0H0zm.493.498c0 147.95.115 208.326.257 134.169.141-74.156.141-195.206 0-269C.608 60.876.493 121.55.493 269.5M331.699 38.241c-6.967 14.919-12.529 27.262-12.361 27.43.275.275 43.414-19.906 51.585-24.131l3.32-1.717-4.372-4.495c-2.404-2.472-9.126-8.931-14.938-14.353l-10.567-9.858zm-64.058 10.775c-3.222 1.145-8.172 3.832-11 5.972S203.125 100.665 144 151.738C37.64 243.613 36.463 244.67 33.026 251.396c-3.057 5.984-3.476 7.715-3.498 14.451-.033 9.813 2.328 16.287 8.936 24.508 12.278 15.277 186.924 216.82 190.287 219.593 9.302 7.673 25.078 9.313 36.357 3.781 3.73-1.829 39.592-32.178 116.319-98.437C508.936 305.181 498.5 315.676 498.5 297.557c0-9.65-.142-10.307-3.5-16.237-3.584-6.328-185.689-218.192-193.991-225.693-5.85-5.285-11.834-7.71-20.342-8.243-5.564-.348-8.477.017-13.026 1.632m6.686 35.174c-7.853 1.688-14.319 12.005-12.754 20.349 2.593 13.82 20.821 19.463 30.06 9.306 12.48-13.721.898-33.567-17.306-29.655m96.914 122.805c-9.138 5.571-9.637 18.216-.884 22.37 1.895.899 3.94 1.635 4.544 1.635.605 0 1.099 1.329 1.099 2.953 0 10.066 10.845 14.564 19.681 8.163 3.902-2.826 7.319-8.25 7.319-11.616 0-5.37-5.837-11.5-10.95-11.5-1.531 0-2.05-.646-2.05-2.55 0-9.084-10.603-14.429-18.759-9.455m1.933 7.319c-3.968 4.225-2.36 9.686 2.852 9.686 5.053 0 9.067-7.507 5.774-10.8-1.942-1.942-6.28-1.382-8.626 1.114m-27.177 14.342c-6.716 5.651-9.06 17.379-5.047 25.246 2.666 5.226 11.372 12.838 16.155 14.126 8.278 2.229 16.883-4.772 16.891-13.743.008-8.212-8.887-14.534-17.213-12.235-3.863 1.066-8.773 5.964-8.798 8.777-.014 1.446-.147 1.469-.985.173-1.49-2.305-1.179-10.754.517-14.033.834-1.613 2.887-3.642 4.562-4.508 2.219-1.147 2.96-2.169 2.733-3.767-.48-3.373-4.828-3.391-8.815-.036m39.156-.906c-3.22 2.725-3.729 6.674-1.189 9.214 2.648 2.648 5.465 2.023 9.286-2.058 4.498-4.804 3.19-8.906-2.839-8.906-1.754 0-4.12.787-5.258 1.75m-28.58 21.82c-6.079 6.078.482 15.752 7.264 10.711 3.821-2.839 4.083-7.412.583-10.165-3.198-2.516-5.703-2.69-7.847-.546m-43.453 7.14c-4.972 2.45-9.287 8.864-8.918 13.256.255 3.024.659 3.534 2.798 3.534 1.965 0 2.737-.734 3.609-3.43 2.15-6.653 9.994-10.548 12.356-6.136 1.536 2.87 1.324 3.667-1.975 7.424-4.739 5.397-1.766 9.305 4.277 5.621 5.735-3.497 11.733-2.039 11.733 2.853 0 3.388-5.773 9.281-11.322 11.558-3.061 1.256-3.758 2.021-3.5 3.839.821 5.785 12.615 1.181 18.781-7.331 6.046-8.346 2.56-17.739-7.209-19.426-3.4-.587-3.752-.943-3.772-3.81-.055-7.801-8.795-11.924-16.858-7.952m117.173 19.04c-4.563 2.515-7.483 6.757-8.038 11.678-.602 5.342 1.078 8.808 4.063 8.383 1.851-.264 2.264-1.125 2.721-5.681.608-6.056 3.259-9.13 7.872-9.13 5.712 0 6.316 4.291 3.171 22.5l-1.899 11 2.083 2.25c1.145 1.238 2.425 2.25 2.843 2.25 1.072 0 21.891-18.002 21.891-18.928 0-1.097-3.462-4.072-4.739-4.072-.595 0-3.697 2.513-6.893 5.584-3.197 3.072-5.973 5.102-6.169 4.513s.129-4.201.722-8.026c1.478-9.523 1.354-14.639-.438-18.104-2.922-5.65-10.996-7.63-17.19-4.217M289.5 276.954c-5.345 2.211-9.5 10.133-9.5 18.113 0 8.909 5.522 17.084 14.511 21.482 6.986 3.418 10.954 2.831 16.496-2.441 3.48-3.31 3.993-4.364 3.989-8.203-.007-8.393-5.703-13.905-14.37-13.905-5.208 0-9.987 3.317-11.086 7.695-1.004 4.003-2.506.985-2.525-5.077-.017-5.5 2.786-11.071 5.991-11.909 2.556-.669 3.563-3.319 1.983-5.222-1.368-1.649-2.521-1.761-5.489-.533m-140.772 18.119c-4.094 3.374-4.769 6.3-1.818 7.879 1.263.676 1.731 1.704 1.383 3.035-.709 2.71-4.875 2.72-5.583.013-.287-1.1-1.31-2-2.272-2-2.175 0-8.041 4.39-9.494 7.105-1.945 3.634.18 4.651 8.587 4.111l7.535-.483-.622 4.383c-.343 2.411-1.074 5.865-1.625 7.675-2.289 7.522 2.561 8.454 9.135 1.756 3.705-3.775 4.174-4.688 3.085-6-.706-.851-1.934-1.547-2.728-1.547-.985 0-1.343-.874-1.127-2.75.266-2.312.851-2.801 3.669-3.071 2.009-.192 3.11.072 2.747.66-1.034 1.672.515 4.161 2.589 4.161 3.138 0 10.963-6.94 10.61-9.41-.274-1.914-1.044-2.114-9.137-2.38l-8.839-.29.701-5.21c.385-2.866 1.107-5.715 1.605-6.333 1.405-1.744-.104-4.377-2.508-4.377-1.191 0-3.843 1.383-5.893 3.073m255.781 2.098c-5.96 4.689-8.507 17.817-4.921 25.373 1.883 3.969 10.276 12.074 13.95 13.47 8.678 3.3 19.467-3.265 19.458-11.841-.014-13.583-18.774-19.247-24.848-7.501l-1.979 3.828-1.138-2.955c-.636-1.654-.853-4.642-.49-6.785.684-4.049 4.745-9.76 6.941-9.76 1.613 0 2.652-2.488 1.88-4.5-.844-2.198-5.67-1.832-8.853.671m-107.104 3.333c-2.137 2.137-2.512 3.224-2.003 5.812 1.212 6.175 6.833 7.57 10.922 2.71 2.687-3.193 2.631-5.885-.174-8.343-3.325-2.914-5.956-2.968-8.745-.179m-44.415 7.746c-4.419 3.008-6.925 6.561-7.597 10.773-.809 5.073.966 8.977 4.082 8.977 2.712 0 2.924-.51 2.582-6.213-.301-5.033 3.532-9.051 8.203-8.599 5.441.526 5.893 3.042 3.514 19.58-1.974 13.73-1.984 14.342-.258 16.25.987 1.09 2.209 1.982 2.716 1.982s5.802-4.163 11.766-9.25l10.844-9.25-2.095-2.25c-1.153-1.238-2.52-2.25-3.038-2.25s-3.681 2.536-7.03 5.637c-3.348 3.1-6.249 5.153-6.446 4.563-.197-.591.12-3.66.705-6.821 1.571-8.498 1.348-17.526-.499-20.162-3.746-5.349-11.91-6.737-17.449-2.967m-146.312 6.199c-10.282 5.492-9.365 17.688 2.22 29.528 8.798 8.991 17.459 10.434 23.677 3.945 9.014-9.409-3.614-31.528-19.622-34.368-2.223-.394-4.458-.076-6.275.895m307.879 4.774c-4.338 6.192.931 13.644 7.313 10.344 4.737-2.449 5.517-6.915 1.816-10.393-3.017-2.834-7.126-2.812-9.129.049M108 322c-1.1 1.1-2 2.918-2 4.04 0 3.292 3.506 9.14 8.24 13.744 7.385 7.182 14.76 6.616 14.76-1.133 0-6.367-11.493-18.651-17.45-18.651-.853 0-2.45.9-3.55 2m259.557 8.75c-5.274 7.236-6.123 9.129-4.939 11.006 2.016 3.197 4.029 2.441 7.787-2.923 1.637-2.338.379-3.427 12.899 11.167l5.577 6.5-3.441 3.542c-3.935 4.052-3.996 4.259-1.871 6.385 2.04 2.04 3.796 1.121 12.931-6.768 9.212-7.955 9.648-8.514 8.426-10.797-1.213-2.266-4.217-2.421-5.971-.307-3.714 4.475-4.313 4.119-16.058-9.542-6.153-7.157-11.343-13.013-11.532-13.013s-1.903 2.137-3.808 4.75M224.5 333.186a9825 9825 0 0 1-10.368 9.032l-3.367 2.927 2.843 2.968c3.532 3.686 6.759 3.542 7.204-.322.207-1.795 1.942-4.074 5.139-6.75 2.655-2.223 5.055-4.041 5.334-4.041.28 0 3.064 6.413 6.187 14.25s6.24 14.829 6.926 15.537c1.412 1.457 4.188.735 4.966-1.292.712-1.856-12.04-33.458-14.625-36.245-1.148-1.238-2.347-2.232-2.663-2.209-.317.023-3.726 2.788-7.576 6.145m122.794 13.015c-1.214.586-3.464 2.88-5 5.097-2.502 3.609-2.794 4.886-2.794 12.202 0 7.391.277 8.571 2.905 12.363 3.578 5.162 9.792 9.844 14.89 11.217 3.241.872 4.525.702 8.235-1.094 11.248-5.445 11.188-19.127-.106-24.123-7.229-3.197-13.416-1.112-16.46 5.548l-1.787 3.91-1.216-4.057c-1.73-5.773.318-11.888 5.039-15.044 4.098-2.74 4.626-3.761 2.972-5.754-1.405-1.693-3.546-1.778-6.678-.265m-157.958 18.836c-3.671 5.522-4.502 7.476-3.712 8.729 1.749 2.773 3.227 2.508 6.609-1.184l3.273-3.572 4.031 4.745c2.218 2.61 5.984 7.09 8.371 9.956l4.339 5.21-3.124 2.629c-4.181 3.518-3.959 8.45.381 8.45.785 0 18.05-15.239 18.817-16.608.945-1.69-.819-4.392-2.867-4.392-.715 0-2.638 1.125-4.272 2.5s-3.208 2.5-3.499 2.5-5.295-5.603-11.121-12.451c-5.826-6.847-11.021-12.715-11.544-13.038s-3.08 2.614-5.682 6.526M356 369c-3.865 3.865-1.245 12 3.865 12 1.026 0 3.051-.933 4.5-2.073 3.541-2.784 3.541-7.07 0-9.854-3.313-2.607-5.81-2.628-8.365-.073m-35 5c-.589 1.1-1.662 2-2.385 2-2.254 0-9.468 5.815-11.079 8.931-1.97 3.809-1.974 12.344-.008 16.487 2.534 5.339 9.435 11.332 14.643 12.714 3.8 1.009 5.433.989 8.761-.11 4.815-1.589 11.51-7.042 13.594-11.073 1.941-3.753 1.926-9.561-.026-10.311-2.638-1.012-4.071.31-5.294 4.881-.908 3.395-2.184 5.177-5.349 7.47-7.592 5.499-15.26 3.007-19.837-6.448-2.821-5.828-2.057-9.54 2.785-13.532 3.858-3.18 7.019-3.76 10.076-1.851 2.555 1.595 5.119.378 5.119-2.43 0-2.673-5.733-8.728-8.262-8.728-.917 0-2.149.9-2.738 2m-149.5 3.954c-5.345 2.211-9.5 10.133-9.5 18.113 0 8.909 5.522 17.084 14.511 21.482 6.986 3.418 10.954 2.831 16.496-2.441 3.48-3.31 3.993-4.364 3.989-8.203-.007-8.393-5.703-13.905-14.37-13.905-5.208 0-9.987 3.317-11.086 7.695-1.004 4.003-2.506.985-2.525-5.077-.017-5.5 2.786-11.071 5.991-11.909 2.556-.669 3.563-3.319 1.983-5.222-1.368-1.649-2.521-1.761-5.489-.533m116.398 19.304c-4.838 3.215-7.898 9.8-7.898 16.994 0 7.06 2.258 11.942 7.868 17.01 9.471 8.556 16.945 8.944 24.132 1.252 2.028-2.17 2.5-3.695 2.5-8.078 0-4.885-.35-5.753-3.654-9.057-2.98-2.979-4.549-3.731-8.5-4.072-5.876-.507-10.782 2.121-12.765 6.839-1.467 3.488-2.085 3.014-3.095-2.371-.873-4.653 2.365-11.93 6.057-13.613 3.094-1.41 4.083-3.703 2.446-5.675-1.684-2.029-3.111-1.874-7.091.771m-108.493 4.246c-2.137 2.137-2.512 3.224-2.003 5.812 1.212 6.175 6.833 7.57 10.922 2.71 2.687-3.193 2.631-5.885-.174-8.343-3.325-2.914-5.956-2.968-8.745-.179m117.152 18.719c-3.402 4.856-1.018 10.777 4.34 10.777 3.247 0 7.103-3.678 7.103-6.775 0-5.351-8.433-8.301-11.443-4.002m-45.414 8.31c-4.165 3.505-5.571 8.164-4.105 13.609 2.094 7.775 10.251 17.417 17.18 20.307 6.059 2.527 10.293 2.026 14.358-1.7 6.639-6.084 5.391-15.039-3.592-25.768-7.313-8.734-17.764-11.561-23.841-6.448m3.944 5.38c-2.546 2.546-2.65 5.584-.337 9.83 2.605 4.781 9.232 11.351 13.064 12.953 2.964 1.238 3.668 1.218 5.781-.166 1.866-1.223 2.405-2.458 2.405-5.516 0-3.153-.848-4.975-4.25-9.132q-11.087-13.546-16.663-7.969m-28.772 17.179c-6.908 2.021-12.234 10.581-10.573 16.993 1.848 7.132 7.955 6.001 6.731-1.247-.566-3.35-.276-4.189 2.364-6.829 3.537-3.537 6.359-3.813 9.265-.907 2.342 2.342 2.273 4.366-.781 22.759l-1.554 9.36 2.473 2.474 2.474 2.473 11.19-9.674c9.325-8.061 10.988-9.919 9.976-11.139-3.07-3.699-4.318-3.388-10.862 2.706-3.501 3.259-6.54 5.75-6.754 5.536s.098-3.079.694-6.366c1.677-9.245 1.728-17.565.127-20.565-2.648-4.962-8.856-7.304-14.77-5.574"  fill-rule="evenodd"/>
  

</svg>